<?xml version="1.0" encoding="UTF-8" standalone="no"?>
<svg
   xmlns:svg="http://www.w3.org/2000/svg"
   xmlns="http://www.w3.org/2000/svg"
   viewBox="0 0 512 512"
   width="16"
   height="16"
   id="svg2">
  <g
     id="layer1"
     transform="translate(-22,-390)">
    <path
       id="p4"
       d="m 213.72297,656.56877 59.89064,0 0,-109.66897 -59.89064,109.66897 z m 20.24456,-164.04064 c -8.29322,0 -15.26258,3.13097 -20.12406,11.5387 -31.32332,54.07689 -71.8427,128.77738 -103.43632,193.21888 -5.11762,10.46592 -1.08263,20.07893 12.04135,20.07893 l 94.05856,0 0,146.84254 -194.499546,0 0,-431.50368 302.587066,0 c 77.77217,0 123.0186,5.39415 163.50749,28.20701 40.51986,22.81237 61.95363,59.26651 61.95363,114.13749 0,54.8568 -21.43377,91.31071 -61.95363,114.12332 -25.42243,14.33215 -52.74149,21.78448 -88.77531,25.34082 0.9626,-1.60113 1.18825,-3.96874 1.18825,-7.49555 l 0,-37.39489 c 0,-7.21733 -5.85505,-13.05293 -13.04933,-13.05293 l -26.89753,0 0,-150.98795 c 0,-7.2034 -5.84016,-13.05269 -13.06517,-13.05269 0,0 -112.30159,0 -113.53593,0"
       style="fill:#c00000;fill-rule:evenodd;stroke:none" />
  </g>
</svg>
